<svg id="Signature_Templates" data-name="Signature Templates" xmlns="http://www.w3.org/2000/svg" viewBox="0 0 163.66 38.89"><defs><style>.cls-1{fill:#8b191b;}.cls-2{fill:#231f20;}.cls-3{fill:#2d2d29;}</style></defs><title>Artboard 2</title><path class="cls-1" d="M28.47,27.61a2.43,2.43,0,0,1-2.75-2.53,2.52,2.52,0,0,1,1.82-2.53c1.67-.62,2-.69,3.19-1.05v-.3a2.74,2.74,0,0,0-.11-1,1.7,1.7,0,0,0-1.73-1.08,2.07,2.07,0,0,0-1.8,1l-.1.19L26.52,20l0-.15a3.16,3.16,0,0,1,3.18-2A2.91,2.91,0,0,1,32.43,19a4.69,4.69,0,0,1,.43,2.44c0,.81,0,1.72,0,2.44,0,.5,0,.94,0,1.2,0,.67.11,1.18.66,1.18a.48.48,0,0,0,.31-.09l.15-.13.31.35-.1.13a2.27,2.27,0,0,1-1.86,1.05,1.36,1.36,0,0,1-1.44-.95A3.22,3.22,0,0,1,28.47,27.61Zm2.26-4.95a10.54,10.54,0,0,0-2.07.79,1.56,1.56,0,0,0-.82,1.47,1.25,1.25,0,0,0,1.4,1.37,2.58,2.58,0,0,0,1.49-.44Z"/><path class="cls-1" d="M12.88,27.59a9.54,9.54,0,0,1-3.1-.45l-.14,0v-.69c0-.91,0-1.26,0-1.55l0-.48h.55v.2a1.94,1.94,0,0,0,.43,1.14,3.15,3.15,0,0,0,2.18.72c1.79,0,2.63-.68,2.63-2.14,0-1.24-.78-1.76-1.84-2.48l-.17-.12L12.24,21c-1.56-1-2.36-1.87-2.36-3.52,0-.82.31-3.47,4.25-3.47a18.05,18.05,0,0,1,2.92.23l.17,0v.17s0,.52,0,1.08,0,.82,0,1.22V17h-.47l0-.18a1.7,1.7,0,0,0-.45-1.14,3.23,3.23,0,0,0-2.11-.56c-2.09,0-2.33,1.08-2.33,1.88,0,1.11.56,1.49,1.81,2.31l1.42.94c1.22.81,2.36,1.58,2.36,3.59C17.43,27.22,14.25,27.59,12.88,27.59Z"/><path class="cls-1" d="M22.23,27.65A2.35,2.35,0,0,1,19.61,26a8,8,0,0,1-.15-1.92c0-1.51,0-2.71,0-4.11v-.66H18.26v-.37l.12,0a3.93,3.93,0,0,0,1.05-.6A6.84,6.84,0,0,0,21,16.36l.21-.36h.41v2.12h3.2v1.16H21.6v4.95c0,1.47.28,2.31,1.67,2.31a2.83,2.83,0,0,0,1.15-.25l.2-.1.16.38-.08.09A3.07,3.07,0,0,1,22.23,27.65Z"/><path class="cls-1" d="M35,27.53v-.45h.18a1.27,1.27,0,0,0,.84-.39c.29-.32.31-1.13.31-2.73V21.26a4.26,4.26,0,0,0-.19-1.91,1.13,1.13,0,0,0-.84-.32h-.08l-.18,0v-.54l.21,0h.15a10,10,0,0,0,1.7-.18,3.27,3.27,0,0,0,1-.33l.11-.05.18.11v.75a4.6,4.6,0,0,1,2.73-.91,2.84,2.84,0,0,1,3.12,2.23,9.75,9.75,0,0,1,.13,1.69v2.74c0,1.56.06,2,.35,2.26a1.27,1.27,0,0,0,.73.27h.18v.44l-.47,0c-.67,0-1.25-.07-1.86-.07a20.42,20.42,0,0,0-2.14.08l-.22,0v-.44l.17,0a1.32,1.32,0,0,0,.78-.32c.31-.3.32-1,.35-1.65,0-.11,0-.22,0-.33,0-.35,0-1.09,0-1.63A19.5,19.5,0,0,0,42.21,21a1.77,1.77,0,0,0-2-1.79,3.67,3.67,0,0,0-1.76.4v4.94c0,1.56.07,2,.36,2.26a1.27,1.27,0,0,0,.72.27h.19v.44l-.5,0c-.66,0-1.22-.06-1.81-.06a21,21,0,0,0-2.16.08Z"/><path class="cls-1" d="M46.77,27.53v-.46H47a1.24,1.24,0,0,0,.83-.39c.29-.32.31-1.12.31-2.72V19.28H46.87v-.52L47,18.7a4.22,4.22,0,0,0,1.11-.58,16.67,16.67,0,0,1,.14-2.49c.37-1.94,1.64-2.93,3.77-2.93a3.84,3.84,0,0,1,2.3.72l.07.06,0,.2L53.48,15h-.23l0-.12a1.62,1.62,0,0,0-1.58-1.11,1.39,1.39,0,0,0-.95.34c-.41.4-.48,1-.48,2.21v1.82h2.1v1.16h-2.1V24.5a4.83,4.83,0,0,0,.21,2.09c.26.4,1.06.43,1.29.43h.2v.5h-.21c-1-.06-1.8-.08-2.36-.08s-1.49,0-2.33.08Z"/><path class="cls-1" d="M57.59,27.69C54.72,27.69,53,25.9,53,22.9c0-2.32,1.25-5,4.78-5,2.88,0,4.59,1.79,4.59,4.78C62.38,25,61.13,27.69,57.59,27.69ZM57.71,19a2,2,0,0,0-1.33.43,4.31,4.31,0,0,0-1.14,3.42c0,.64.12,3.8,2.43,3.8A2,2,0,0,0,59,26.17a4.31,4.31,0,0,0,1.13-3.42C60.14,22.11,60,19,57.71,19Z"/><path class="cls-1" d="M63.29,27.53v-.48h.18a1.29,1.29,0,0,0,.84-.39c.29-.32.3-1.1.3-2.7V21.26c0-1.16,0-1.65-.18-1.91s-.62-.3-.85-.32h-.07l-.18,0v-.57h.35a10.09,10.09,0,0,0,1.71-.18,5,5,0,0,0,1-.27L66.5,18l.17.09v.82A3.1,3.1,0,0,1,68.84,18a2.28,2.28,0,0,1,1.58.52l.07.06v.3l-.8,1.45h-.38l-.06-.09a1.69,1.69,0,0,0-1.51-.76,1.81,1.81,0,0,0-1,.3V24.5a5,5,0,0,0,.2,2.07c.27.4,1.06.43,1.3.43h.2v.52H68.2c-1-.06-1.81-.08-2.36-.08-.7,0-1.49,0-2.33.08Z"/><path class="cls-1" d="M78.08,27.66l-.25-.08v-.8a4.43,4.43,0,0,1-2.63.89c-2.58,0-4.25-1.79-4.25-4.57a6.21,6.21,0,0,1,.51-2.53A4.69,4.69,0,0,1,76,17.88a9.06,9.06,0,0,1,1.84.18v-2a5.3,5.3,0,0,0-.18-2,1.1,1.1,0,0,0-.83-.32H76.7l-.18,0,0-.42h.2s1.13-.09,2-.26a6,6,0,0,0,.93-.21l.09,0,.17.1v.09c-.06.77-.08,2.43-.08,3.67v7.68a5.24,5.24,0,0,0,.19,2.08,1.11,1.11,0,0,0,.83.35h.25v.5H81a13.89,13.89,0,0,0-1.82.2,4.78,4.78,0,0,0-1,.21ZM75.91,19c-1.84,0-2.73,1.25-2.73,3.83,0,1.05.3,3.48,3,3.48h.09a2.94,2.94,0,0,0,1.49-.38v-6.3A2.6,2.6,0,0,0,75.91,19Z"/><rect class="cls-2" x="85.17" y="9.69" width="0.6" height="17.85"/><path class="cls-3" d="M94.33,9.54a2.64,2.64,0,0,1,2,.85l-.49.56a1.88,1.88,0,0,0-1.47-.64c-1.39,0-2.28,1.07-2.28,2.78s.82,2.82,2.29,2.82a1.92,1.92,0,0,0,1.24-.41V13.71H94.13V13h2.26v2.9a3,3,0,0,1-2.14.8c-1.8,0-3.09-1.33-3.09-3.57S92.49,9.54,94.33,9.54Z"/><path class="cls-3" d="M100.78,13.32c0-.65-.22-1.28-1-1.28a2.78,2.78,0,0,0-1.52.54l-.34-.6a3.8,3.8,0,0,1,2-.66c1.25,0,1.77.83,1.77,2.1v3.13h-.71l-.07-.61h0a2.79,2.79,0,0,1-1.69.74,1.39,1.39,0,0,1-1.5-1.45C97.65,14.12,98.61,13.56,100.78,13.32ZM99.39,16a2.08,2.08,0,0,0,1.39-.68V13.89c-1.71.2-2.28.62-2.28,1.28S98.88,16,99.39,16Z"/><path class="cls-3" d="M103.37,12.15h-.76V11.5l.8-.05.1-1.43h.73v1.43h1.37v.7h-1.37V15c0,.63.2,1,.78,1a2,2,0,0,0,.58-.13l.17.65a3.27,3.27,0,0,1-.94.19c-1.1,0-1.46-.7-1.46-1.7Z"/><path class="cls-3" d="M108.59,11.32c1.3,0,2,.94,2,2.4a3.18,3.18,0,0,1,0,.47h-3.45a1.7,1.7,0,0,0,1.7,1.79,2.27,2.27,0,0,0,1.27-.39l.31.56a3,3,0,0,1-1.68.53A2.44,2.44,0,0,1,106.3,14,2.47,2.47,0,0,1,108.59,11.32Zm1.28,2.3c0-1-.46-1.61-1.26-1.61a1.59,1.59,0,0,0-1.47,1.61Z"/><path class="cls-3" d="M111.29,11.45h.88l.76,3c.11.48.21.94.3,1.42h0c.12-.48.22-1,.35-1.42l.79-3h.84l.79,3c.13.48.25.94.36,1.42h0c.12-.48.21-.94.32-1.42l.74-3h.82L117,16.55h-1l-.74-2.74c-.12-.48-.22-1-.34-1.47h0c-.11.52-.22,1-.35,1.48l-.72,2.73h-1Z"/><path class="cls-3" d="M122.29,13.32c0-.65-.22-1.28-1.05-1.28a2.79,2.79,0,0,0-1.53.54l-.34-.6a3.8,3.8,0,0,1,2-.66c1.25,0,1.78.83,1.78,2.1v3.13h-.72l-.07-.61h0a2.76,2.76,0,0,1-1.69.74,1.39,1.39,0,0,1-1.5-1.45C119.15,14.12,120.11,13.56,122.29,13.32ZM120.89,16a2.12,2.12,0,0,0,1.4-.68V13.89c-1.71.2-2.29.62-2.29,1.28S120.39,16,120.89,16Z"/><path class="cls-3" d="M124.7,18c.58,0,1-.46,1.16-1.09l.11-.38-2-5.11h.89l1,2.82.49,1.44h0c.15-.46.3-1,.43-1.44l.92-2.82h.84L126.66,17c-.36,1-.89,1.78-1.91,1.78a1.69,1.69,0,0,1-.6-.11l.16-.68A1.68,1.68,0,0,0,124.7,18Z"/><path class="cls-3" d="M90.44,25.37c0-1.65,1.08-3.35,2.63-3.35,1.22,0,1.88.9,1.88,2.27,0,1.66-1.08,3.35-2.64,3.35C91.1,27.64,90.44,26.74,90.44,25.37Zm.65-.05c0,1.05.39,1.76,1.26,1.76,1.16,0,2-1.47,2-2.74,0-1.06-.4-1.76-1.26-1.76C91.88,22.58,91.09,24.05,91.09,25.32Z"/><path class="cls-3" d="M96.34,23.53h.52l0,.6h0a2.21,2.21,0,0,1,1.4-.7c.68,0,1,.38,1,1a2.2,2.2,0,0,1-.06.55l-.52,2.56H98l.49-2.48a2.54,2.54,0,0,0,.07-.47c0-.4-.18-.62-.6-.62a1.92,1.92,0,0,0-1.2.73l-.57,2.84h-.63Z"/><path class="cls-3" d="M101.09,21.66h.64l-1,5.14a.64.64,0,0,0,0,.16.13.13,0,0,0,.14.15.28.28,0,0,0,.13,0v.49a1.06,1.06,0,0,1-.4.07.47.47,0,0,1-.53-.52,1.27,1.27,0,0,1,0-.35Z"/><path class="cls-3" d="M102.8,23.53h.64l-.81,4H102Zm.13-1.21a.49.49,0,0,1,.48-.48.38.38,0,0,1,.41.38.47.47,0,0,1-.48.47A.37.37,0,0,1,102.93,22.32Z"/><path class="cls-3" d="M104.8,23.53h.52l-.06.6h0a2.21,2.21,0,0,1,1.4-.7c.68,0,1,.38,1,1a2.24,2.24,0,0,1-.07.55l-.51,2.56h-.63l.5-2.48a2.4,2.4,0,0,0,.06-.47c0-.4-.18-.62-.59-.62a1.92,1.92,0,0,0-1.2.73l-.58,2.84H104Z"/><path class="cls-3" d="M110.62,23.43c.9,0,1.24.62,1.24,1.45a2.48,2.48,0,0,1-.15.78h-2.6c-.15,1,.38,1.47,1.09,1.47a1.62,1.62,0,0,0,.9-.34l.24.42a2.23,2.23,0,0,1-1.29.43A1.51,1.51,0,0,1,108.47,26,2.38,2.38,0,0,1,110.62,23.43Zm.66,1.81a2.72,2.72,0,0,0,0-.42c0-.45-.2-.89-.78-.89a1.58,1.58,0,0,0-1.37,1.31Z"/><path class="cls-3" d="M115.09,22.12h.64l-.46,2.29h2.44l.46-2.29h.64l-1.08,5.42h-.65L117.6,25h-2.44l-.51,2.58H114Z"/><path class="cls-3" d="M120,23.53h.63l-.81,4h-.62Zm.13-1.21a.48.48,0,0,1,.48-.48.38.38,0,0,1,.4.38.47.47,0,0,1-.48.47A.37.37,0,0,1,120.1,22.32Z"/><path class="cls-3" d="M125,23.53l-.85,4.2a1.83,1.83,0,0,1-1.88,1.66,2.18,2.18,0,0,1-1.4-.56l.3-.43a1.74,1.74,0,0,0,1.13.48c.68,0,1.09-.47,1.26-1.2l.2-.83h0a2,2,0,0,1-1.36.65c-.68,0-1.16-.48-1.16-1.42a2.5,2.5,0,0,1,2.12-2.65,1.07,1.07,0,0,1,1,.6h0l.16-.5Zm-1.18,2.74.35-1.72c-.25-.42-.51-.59-.82-.59-.77,0-1.49,1-1.49,2,0,.66.27,1,.72,1A1.74,1.74,0,0,0,123.86,26.27Z"/><path class="cls-3" d="M126.79,21.66h.64L127,23.6l-.14.5h0a2.24,2.24,0,0,1,1.37-.67c.68,0,.95.38.95,1a2.2,2.2,0,0,1-.06.55l-.51,2.56h-.63l.49-2.48a2.54,2.54,0,0,0,.07-.47c0-.4-.18-.62-.59-.62a1.91,1.91,0,0,0-1.21.73l-.57,2.84h-.63Z"/><path class="cls-3" d="M131.8,26.32a1.64,1.64,0,0,0,1.4.77,1.05,1.05,0,0,0,1.16-1c0-.4-.27-.65-.67-.89l-.63-.38a1.47,1.47,0,0,1-.84-1.27A1.59,1.59,0,0,1,133.91,22a2,2,0,0,1,1.53.76l-.42.38a1.5,1.5,0,0,0-1.16-.58.91.91,0,0,0-1,.87c0,.42.3.65.7.88l.63.38A1.37,1.37,0,0,1,135,26a1.72,1.72,0,0,1-1.88,1.66,2.11,2.11,0,0,1-1.81-1Z"/><path class="cls-3" d="M138.07,23.43a1.32,1.32,0,0,1,1,.48l-.37.4A.81.81,0,0,0,138,24c-.8,0-1.55.94-1.55,2,0,.72.31,1.12,1,1.12a1.48,1.48,0,0,0,.89-.36l.28.42a2.06,2.06,0,0,1-1.29.47A1.44,1.44,0,0,1,135.84,26,2.44,2.44,0,0,1,138.07,23.43Z"/><path class="cls-3" d="M140.59,21.66h.63l-.39,1.94-.14.5h0a2.24,2.24,0,0,1,1.38-.67c.67,0,.95.38.95,1A2.24,2.24,0,0,1,143,25l-.51,2.56h-.63l.5-2.48a2.4,2.4,0,0,0,.06-.47c0-.4-.18-.62-.59-.62s-.7.22-1.21.73L140,27.54h-.62Z"/><path class="cls-3" d="M143.86,26a2.43,2.43,0,0,1,2.16-2.6A1.43,1.43,0,0,1,147.46,25a2.43,2.43,0,0,1-2.17,2.6A1.42,1.42,0,0,1,143.86,26Zm.64,0c0,.72.3,1.12.86,1.12.74,0,1.46-.91,1.46-2,0-.73-.31-1.13-.86-1.13C145.22,24,144.5,24.86,144.5,26Z"/><path class="cls-3" d="M148.24,26a2.42,2.42,0,0,1,2.16-2.6A1.42,1.42,0,0,1,151.83,25a2.43,2.43,0,0,1-2.17,2.6A1.42,1.42,0,0,1,148.24,26Zm.63,0c0,.72.31,1.12.86,1.12.74,0,1.46-.91,1.46-2,0-.73-.31-1.13-.86-1.13C149.6,24,148.87,24.86,148.87,26Z"/><path class="cls-3" d="M153.66,21.66h.63l-1,5.14a.64.64,0,0,0,0,.16.13.13,0,0,0,.14.15.31.31,0,0,0,.14,0v.49a1,1,0,0,1-.39.07.48.48,0,0,1-.54-.52,1.82,1.82,0,0,1,0-.35Z"/></svg>